<svg class="svg-icon" style="width: 1em;height: 1em;vertical-align: middle;fill: currentColor;overflow: hidden;" viewBox="0 0 1024 1024" version="1.1" xmlns="http://www.w3.org/2000/svg"><path d="M408.87 639.94l71.84-256.05h-52.14l-49.82 193.57-49.83-193.57h-50.98l70.68 256.05zM496.94 383.89h47.51v256.05h-47.51zM620.92 545.61h73c28.57-1.63 43.63-16.33 45.19-44.1v-69.83c-1.56-30.21-17.78-46.13-48.67-47.78H574.57v256.05h46.35v-94.34z m0-117.62H658c21.62 1.65 33.21 11.85 34.76 30.63v42.88h-71.84v-73.51z" fill="#333333" /><path d="M928 385.17V191.78H98v194.8c37.3 29.11 61.28 74.49 61.28 125.47 0 50.98-23.98 96.35-61.28 125.47V831.5h830V638.93c-38.35-29.04-63.13-75.07-63.13-126.88s24.78-97.83 63.13-126.88z m-64-28.68c-40.46 41.37-63.13 96.49-63.13 155.57 0 59.07 22.67 114.19 63.13 155.57v99.88H162V665.68c39.28-41.19 61.28-95.63 61.28-153.63s-22-112.44-61.28-153.63V255.78h702v100.71z" fill="#333333" /></svg>