<?xml version="1.0" encoding="iso-8859-1"?>
<!-- Uploaded to: SVG Repo, www.svgrepo.com, Generator: SVG Repo Mixer Tools -->
<svg fill="#000000" height="800px" width="800px" version="1.1" id="Layer_1" xmlns="http://www.w3.org/2000/svg" xmlns:xlink="http://www.w3.org/1999/xlink" 
	 viewBox="0 0 500.636 500.636" xml:space="preserve">
<g>
	<g>
		<path d="M309.165,31.015c-33.067-10.667-72.533-1.067-108.8,27.733c-36.267-29.867-76.8-41.6-110.933-28.8
			c-30.933,10.667-70.4,40.533-84.267,88.533c-9.6,32-10.667,83.2,40.533,146.133c21.333,26.667,54.4,66.133,82.133,97.067
			c53.333,59.733,60.8,64,70.4,64h2.133h1.067c8.533,0,25.6-6.4,137.6-138.667c7.466-9.6,5.333-22.4-3.2-29.866
			c-9.6-7.467-22.4-5.333-29.867,3.2c-40.533,48-85.333,98.133-105.6,118.4c-23.467-22.4-84.267-91.733-124.8-140.8
			c-29.867-38.4-41.6-75.733-32-107.733c9.6-33.067,37.333-53.333,58.667-60.8c22.4-7.467,51.2,3.2,78.933,29.867
			c1.067,1.067,2.133,2.133,3.2,3.2c8.533,7.467,21.333,8.533,29.867,0c28.8-27.733,59.733-39.467,82.133-32
			c26.667,9.6,65.067,41.6,60.8,91.733c-1.067,11.733,7.467,21.333,19.2,22.4c1.067,0,1.067,0,2.133,0
			c10.667,0,20.267-8.533,21.333-19.2C405.165,99.281,359.299,47.015,309.165,31.015z"/>
	</g>
</g>
<g>
	<g>
		<path d="M476.632,265.682c-17.067-20.267-43.733-27.733-76.8-23.467c-12.8-30.933-34.133-50.133-58.667-55.467
			c-26.667-5.333-55.467,1.067-76.8,17.067c-22.4,16-35.2,39.467-39.467,69.333c-1.067,11.733,6.4,22.4,18.133,23.467
			c1.067,0,2.133,0,3.2,0c10.667,0,19.2-7.467,19.2-19.2c2.133-18.133,9.6-32,22.4-40.533c14.933-10.667,33.067-11.733,44.8-9.6
			c13.867,3.2,26.667,18.133,33.067,42.667c2.133,6.4,5.333,10.667,10.667,12.8c5.333,3.2,10.667,4.267,16,3.2
			c24.533-5.333,43.733-3.2,53.333,7.467c9.6,10.667,17.067,30.933,12.8,50.133c-4.267,20.267-22.4,37.333-52.267,49.067
			c-37.333,13.867-89.6,33.067-115.2,39.467c-1.067-3.2-2.133-8.533-3.2-13.867c-2.133-11.733-12.8-18.133-24.533-16
			c-11.733,2.133-18.133,12.8-16,24.533c5.333,25.6,8.533,36.267,14.933,42.667c1.067,2.133,8.533,6.4,14.933,6.4
			c13.867,0,48-7.467,142.933-44.8c53.333-21.333,71.467-54.4,77.867-77.867C505.432,323.282,496.899,289.149,476.632,265.682z"/>
	</g>
</g>
</svg>