<?xml version="1.0" encoding="iso-8859-1"?>
<!-- Uploaded to: SVG Repo, www.svgrepo.com, Generator: SVG Repo Mixer Tools -->
<svg fill="#000000" height="800px" width="800px" version="1.1" id="Capa_1" xmlns="http://www.w3.org/2000/svg" xmlns:xlink="http://www.w3.org/1999/xlink" 
	 viewBox="0 0 60 60" xml:space="preserve">
<g>
	<path d="M60,11V5h-3.146C56.94,4.674,57,4.341,57,4c0-2.206-1.794-4-4-4s-4,1.794-4,4c0,0.341,0.06,0.674,0.146,1H45v6h2v1v36v1h-2
		v6h4.146C49.06,55.326,49,55.659,49,56c0,2.206,1.794,4,4,4s4-1.794,4-4c0-0.341-0.06-0.674-0.146-1H60v-6h-2V11H60z M58,53h-2.333
		h-5.333H47v-2h11V53z M47,9V7h3.333h5.334H58v2H47z"/>
	<path d="M45,12H12v36h33V12z M39,19h3c0.552,0,1,0.448,1,1s-0.448,1-1,1h-3c-0.552,0-1-0.448-1-1S38.448,19,39,19z M33,26
		c-0.552,0-1-0.448-1-1s0.448-1,1-1h9c0.552,0,1,0.448,1,1s-0.448,1-1,1H33z M40,30c0,0.552-0.448,1-1,1h-6c-0.552,0-1-0.448-1-1
		s0.448-1,1-1h6C39.552,29,40,29.448,40,30z M35.29,19.29c0.37-0.37,1.05-0.37,1.42,0C36.89,19.48,37,19.74,37,20
		c0,0.26-0.11,0.52-0.29,0.71C36.52,20.89,36.26,21,36,21c-0.26,0-0.52-0.11-0.71-0.29C35.11,20.52,35,20.26,35,20
		C35,19.74,35.11,19.48,35.29,19.29z M30,19h3c0.552,0,1,0.448,1,1s-0.448,1-1,1h-3c-0.552,0-1-0.448-1-1S29.448,19,30,19z
		 M29.29,24.29c0.37-0.37,1.05-0.37,1.42,0C30.89,24.48,31,24.74,31,25c0,0.26-0.11,0.52-0.29,0.71C30.52,25.89,30.26,26,30,26
		c-0.26,0-0.52-0.11-0.71-0.29C29.11,25.52,29,25.26,29,25C29,24.74,29.11,24.48,29.29,24.29z M29.29,29.29
		c0.37-0.37,1.04-0.37,1.42,0C30.89,29.48,31,29.74,31,30c0,0.26-0.11,0.52-0.29,0.71C30.52,30.89,30.26,31,30,31
		c-0.26,0-0.52-0.11-0.71-0.29C29.11,30.52,29,30.26,29,30C29,29.74,29.11,29.48,29.29,29.29z M20.29,19.29
		c0.37-0.37,1.04-0.37,1.42,0C21.89,19.48,22,19.73,22,20s-0.11,0.52-0.29,0.71C21.52,20.89,21.26,21,21,21
		c-0.26,0-0.52-0.11-0.71-0.29C20.11,20.52,20,20.26,20,20C20,19.74,20.11,19.48,20.29,19.29z M15,19h3c0.552,0,1,0.448,1,1
		s-0.448,1-1,1h-3c-0.552,0-1-0.448-1-1S14.448,19,15,19z M18,41h-3c-0.552,0-1-0.448-1-1s0.448-1,1-1h3c0.552,0,1,0.448,1,1
		S18.552,41,18,41z M27,41h-6c-0.552,0-1-0.448-1-1s0.448-1,1-1h6c0.552,0,1,0.448,1,1S27.552,41,27,41z M27,36H15
		c-0.552,0-1-0.448-1-1s0.448-1,1-1h12c0.552,0,1,0.448,1,1S27.552,36,27,36z M15,30c0-0.27,0.11-0.52,0.29-0.71
		c0.37-0.37,1.04-0.37,1.42,0C16.89,29.48,17,29.74,17,30c0-0.552,0.448-1,1-1h6c0.552,0,1,0.448,1,1s-0.448,1-1,1h-6
		c-0.552,0-1-0.448-1-1c0,0.27-0.11,0.52-0.29,0.71C16.52,30.89,16.26,31,16,31c-0.26,0-0.52-0.11-0.71-0.29
		C15.11,30.52,15,30.27,15,30z M27.71,30.71C27.52,30.89,27.26,31,27,31c-0.26,0-0.52-0.11-0.71-0.29C26.11,30.52,26,30.26,26,30
		c0-0.26,0.11-0.52,0.29-0.71c0.38-0.37,1.05-0.37,1.42,0C27.89,29.48,28,29.74,28,30C28,30.26,27.89,30.52,27.71,30.71z M27,26h-9
		c-0.552,0-1-0.448-1-1c0,0.26-0.11,0.52-0.29,0.71C16.52,25.89,16.26,26,16,26c-0.26,0-0.52-0.11-0.71-0.29
		C15.11,25.52,15,25.26,15,25c0-0.27,0.11-0.52,0.29-0.71c0.37-0.36,1.04-0.37,1.42,0C16.89,24.48,17,24.74,17,25
		c0-0.552,0.448-1,1-1h9c0.552,0,1,0.448,1,1S27.552,26,27,26z M27,21h-3c-0.552,0-1-0.448-1-1s0.448-1,1-1h3c0.552,0,1,0.448,1,1
		S27.552,21,27,21z M33,41h-3c-0.552,0-1-0.448-1-1s0.448-1,1-1h3c0.552,0,1,0.448,1,1S33.552,41,33,41z M42,41h-6
		c-0.552,0-1-0.448-1-1s0.448-1,1-1h6c0.552,0,1,0.448,1,1S42.552,41,42,41z M42,36H30c-0.552,0-1-0.448-1-1s0.448-1,1-1h12
		c0.552,0,1,0.448,1,1S42.552,36,42,36z M43.71,30.71C43.52,30.89,43.26,31,43,31c-0.26,0-0.52-0.11-0.71-0.29
		C42.11,30.52,42,30.26,42,30c0-0.26,0.11-0.52,0.29-0.71c0.37-0.37,1.05-0.37,1.42,0C43.89,29.48,44,29.74,44,30
		C44,30.26,43.89,30.52,43.71,30.71z"/>
	<path d="M10,48V12v-1h2V5H9.854C9.94,4.674,10,4.341,10,4c0-2.206-1.794-4-4-4S2,1.794,2,4c0,0.341,0.06,0.674,0.146,1H0v6h2v38H0
		v6h2.146C2.06,55.326,2,55.659,2,56c0,2.206,1.794,4,4,4s4-1.794,4-4c0-0.341-0.06-0.674-0.146-1H12v-6h-2V48z M2,7h1.333h5.334H10
		v2H2V7z M10,53H8.667H3.333H2v-2h8V53z"/>
</g>
</svg>