<svg xmlns="http://www.w3.org/2000/svg" xmlns:xlink="http://www.w3.org/1999/xlink" version="1.1" x="0px" y="0px" viewBox="0 0 64 80" enable-background="new 0 0 64 64" xml:space="preserve"><path d="M11.66,59.001c-0.447,0-0.855-0.303-0.969-0.757l-0.988-3.942L5.76,53.314c-0.535-0.134-0.861-0.677-0.727-1.213  c0.135-0.537,0.678-0.859,1.213-0.728l4.525,1.132c0.357,0.09,0.637,0.369,0.727,0.728l1.133,4.524  c0.135,0.536-0.191,1.079-0.727,1.213C11.822,58.991,11.74,59.001,11.66,59.001z"/><path d="M18.256,52.405c-0.449,0-0.855-0.303-0.969-0.757l-0.986-3.943l-3.943-0.987c-0.535-0.134-0.861-0.677-0.727-1.213  c0.133-0.537,0.678-0.86,1.213-0.728l4.523,1.132c0.357,0.09,0.639,0.37,0.727,0.728l1.133,4.525  c0.135,0.536-0.191,1.079-0.729,1.213C18.418,52.396,18.336,52.405,18.256,52.405z"/><path d="M14.957,55.703c-0.447,0-0.855-0.303-0.969-0.757l-0.986-3.942l-3.943-0.987c-0.535-0.134-0.861-0.677-0.727-1.213  c0.133-0.537,0.68-0.861,1.213-0.728l4.523,1.132c0.357,0.09,0.639,0.369,0.727,0.728l1.133,4.524  c0.135,0.536-0.191,1.079-0.727,1.213C15.119,55.693,15.039,55.703,14.957,55.703z"/><path d="M11.66,59.001c-0.256,0-0.512-0.098-0.707-0.293c-0.391-0.391-0.391-1.023,0-1.414l6.596-6.596  c0.391-0.391,1.023-0.391,1.414,0s0.391,1.023,0,1.414l-6.596,6.596C12.172,58.903,11.916,59.001,11.66,59.001z"/><path d="M6.004,53.344c-0.256,0-0.512-0.098-0.707-0.293c-0.391-0.391-0.391-1.023,0-1.414l6.596-6.596  c0.391-0.391,1.023-0.391,1.414,0s0.391,1.023,0,1.414l-6.596,6.596C6.516,53.247,6.26,53.344,6.004,53.344z"/><path d="M58.004,13.001c-0.553,0-1-0.448-1-1v-6c0-0.552,0.447-1,1-1s1,0.448,1,1v6C59.004,12.553,58.557,13.001,58.004,13.001z"/><path d="M58.004,7.001h-6c-0.553,0-1-0.448-1-1s0.447-1,1-1h6c0.553,0,1,0.448,1,1S58.557,7.001,58.004,7.001z"/><path d="M58.004,13.001c-0.256,0-0.512-0.098-0.707-0.293l-6-6c-0.391-0.391-0.391-1.023,0-1.414s1.023-0.391,1.414,0l6,6  c0.391,0.391,0.391,1.023,0,1.414C58.516,12.903,58.26,13.001,58.004,13.001z"/><path d="M45.361,19.643c-0.256,0-0.512-0.098-0.707-0.293c-0.391-0.391-0.391-1.023,0-1.414l9.643-9.642  c0.391-0.391,1.023-0.391,1.414,0s0.391,1.023,0,1.414l-9.643,9.642C45.873,19.545,45.617,19.643,45.361,19.643z"/><path d="M16.258,9.973c-0.023,0-0.047-0.001-0.07-0.002c-0.551-0.038-0.967-0.515-0.93-1.066c0.068-0.974-0.67-1.83-1.645-1.907  c-0.551-0.044-0.961-0.526-0.918-1.076c0.045-0.551,0.512-0.961,1.076-0.918c2.063,0.164,3.623,1.975,3.482,4.038  C17.219,9.569,16.779,9.973,16.258,9.973z"/><path d="M11.131,15.917c-0.238,0-0.477-0.084-0.668-0.255c-0.412-0.368-0.445-1-0.078-1.412c0.605-0.675,1.383-1.241,2.133-1.788  c1.703-1.241,2.738-2.095,2.738-3.49c0-0.552,0.449-1,1-1l0,0c0.553,0,1,0.448,1,1c0,2.513-1.891,3.89-3.561,5.105  c-0.697,0.508-1.357,0.988-1.82,1.506C11.678,15.805,11.404,15.917,11.131,15.917z"/><path d="M6.002,9.973c-0.521,0-0.961-0.404-0.996-0.932c-0.141-2.063,1.42-3.874,3.482-4.038C9.035,4.961,9.52,5.371,9.564,5.922  c0.043,0.55-0.367,1.032-0.918,1.076C7.672,7.075,6.934,7.931,7.002,8.905c0.037,0.551-0.379,1.028-0.93,1.066  C6.049,9.972,6.025,9.973,6.002,9.973z"/><path d="M11.131,15.917c-0.273,0-0.545-0.111-0.742-0.329c-0.463-0.512-1.117-0.989-1.811-1.494c-1.674-1.221-3.57-2.604-3.574-5.12  c-0.002-0.552,0.445-1,0.998-1.001c0,0,0,0,0.002,0c0.551,0,0.998,0.447,1,0.999c0.002,1.399,1.041,2.258,2.754,3.507  c0.744,0.542,1.512,1.104,2.113,1.768c0.371,0.409,0.34,1.042-0.07,1.412C11.609,15.832,11.369,15.917,11.131,15.917z"/><path d="M11.131,8.19c-0.242,0-0.482-0.086-0.676-0.262c-0.406-0.373-0.436-1.005-0.063-1.413c0.836-0.914,2.023-1.465,3.262-1.513  c0.545-0.043,1.018,0.408,1.037,0.96C14.713,6.514,14.283,6.979,13.732,7c-0.707,0.028-1.387,0.343-1.863,0.865  C11.672,8.081,11.4,8.19,11.131,8.19z"/><path d="M11.131,8.19c-0.271,0-0.541-0.109-0.738-0.325C9.916,7.343,9.236,7.028,8.527,7c-0.551-0.021-0.98-0.486-0.959-1.038  s0.486-1.003,1.037-0.96c1.238,0.048,2.428,0.6,3.264,1.513c0.371,0.408,0.344,1.04-0.064,1.413  C11.613,8.104,11.371,8.19,11.131,8.19z"/><path d="M10.527,54.477c-0.256,0-0.512-0.098-0.707-0.293c-0.391-0.391-0.391-1.023,0-1.414l22.186-22.186  c0.391-0.391,1.023-0.391,1.414,0s0.391,1.023,0,1.414L11.234,54.184C11.039,54.379,10.783,54.477,10.527,54.477z"/><path d="M32.004,48.001h-0.002c-0.283,0-0.551-0.12-0.74-0.33c-1.906-2.111-4.313-3.848-6.641-5.528  c-2.926-2.111-5.953-4.294-8.178-7.311c-2.506-3.394-3.303-7.523-2.189-11.33c1.293-4.413,5.045-7.498,9.125-7.501  c3.223,0.124,6.299,1.416,8.625,3.581c2.324-2.165,5.398-3.457,8.584-3.58c2.947,0.002,5.529,1.354,7.311,3.805  c2.244,3.09,2.932,7.442,1.752,11.088c-1.268,3.913-4.355,6.608-7.41,9.034c-0.986,0.783-2.012,1.537-3.002,2.266  c-2.361,1.74-4.594,3.383-6.494,5.478C32.555,47.882,32.285,48.001,32.004,48.001z M23.34,18c-3.691,0.004-6.311,3.146-7.166,6.065  c-0.938,3.201-0.252,6.692,1.879,9.58c2.039,2.765,4.809,4.762,7.738,6.877c2.129,1.536,4.32,3.117,6.213,5.026  c1.867-1.884,3.988-3.447,6.049-4.963c0.977-0.719,1.984-1.461,2.943-2.222c2.932-2.328,5.654-4.698,6.752-8.083  c0.975-3.011,0.385-6.747-1.467-9.296c-0.988-1.359-2.771-2.979-5.654-2.982c-2.967,0.116-5.855,1.455-7.885,3.675  c-0.379,0.414-1.098,0.414-1.477,0C29.234,19.456,26.348,18.117,23.34,18z"/><path d="M58.004,49.713L58.004,49.713c-0.553,0-1-0.448-1-1c0-1.755-1.209-3.638-3.008-3.644c-0.553-0.001-1-0.451-0.998-1.003  c0.002-0.551,0.449-0.997,1-0.997c0.002,0,0.002,0,0.004,0c3.09,0.009,5.002,2.937,5.002,5.645  C59.004,49.266,58.555,49.713,58.004,49.713z"/><path d="M49.994,59.001c-0.238,0-0.477-0.083-0.666-0.254c-0.412-0.368-0.449-1-0.08-1.412c0.91-1.02,2.105-1.891,3.264-2.734  c2.313-1.685,4.496-3.277,4.492-5.886c-0.002-0.552,0.445-1,0.998-1.001c0,0,0,0,0.002,0c0.551,0,0.998,0.447,1,0.999  c0.006,3.628-2.82,5.688-5.314,7.505c-1.123,0.817-2.182,1.589-2.949,2.45C50.543,58.888,50.268,59.001,49.994,59.001z"/><path d="M41.984,49.713h-0.002c-0.553,0-1-0.449-0.998-1.001c0.004-2.707,1.916-5.633,5.002-5.643h0.002  c0.551,0,0.998,0.446,1,0.997c0.002,0.552-0.443,1.001-0.996,1.003c-1.797,0.005-3.006,1.889-3.008,3.646  C42.982,49.266,42.535,49.713,41.984,49.713z"/><path d="M49.994,59.001c-0.275,0-0.551-0.113-0.748-0.335c-0.771-0.868-1.834-1.643-2.959-2.463  c-2.484-1.81-5.301-3.862-5.303-7.489c0-0.552,0.447-1,0.998-1.001h0.002c0.551,0,1,0.447,1,0.999  c0.002,2.611,2.178,4.196,4.48,5.875c1.16,0.846,2.361,1.722,3.275,2.75c0.367,0.413,0.33,1.045-0.082,1.412  C50.467,58.917,50.23,59.001,49.994,59.001z"/><path d="M49.994,46.927c-0.242,0-0.484-0.086-0.676-0.262c-0.406-0.373-0.436-1.005-0.063-1.413c1.205-1.318,2.92-2.113,4.703-2.182  c0.547-0.036,1.018,0.408,1.039,0.96c0.021,0.552-0.408,1.017-0.961,1.038c-1.254,0.049-2.459,0.607-3.305,1.534  C50.535,46.817,50.264,46.927,49.994,46.927z"/><path d="M49.994,46.927c-0.271,0-0.541-0.109-0.738-0.325c-0.848-0.926-2.053-1.485-3.307-1.534  c-0.551-0.021-0.98-0.486-0.959-1.038c0.021-0.552,0.494-0.996,1.037-0.96c1.785,0.069,3.5,0.864,4.705,2.182  c0.371,0.408,0.344,1.04-0.064,1.413C50.477,46.84,50.234,46.927,49.994,46.927z"/><text x="0" y="79" fill="#000000" font-size="5px" font-weight="bold" font-family="'Helvetica Neue', Helvetica, Arial-Unicode, Arial, Sans-serif">Created by alkhalifi_design</text><text x="0" y="84" fill="#000000" font-size="5px" font-weight="bold" font-family="'Helvetica Neue', Helvetica, Arial-Unicode, Arial, Sans-serif">from the Noun Project</text></svg>